HIERARCHY
ROOT Pelvis
{
	OFFSET 0.000000 0.000000 0.000000
	CHANNELS 6 Xposition Yposition Zposition Xrotation Yrotation Zrotation
	JOINT LeftUpLeg_virtual
	{
		OFFSET 0.000000 0.000000 0.000000
		CHANNELS 3 Xrotation Yrotation Zrotation
		JOINT LeftUpLeg
		{
			OFFSET 18.735201 -5.666702 -4.541200
			CHANNELS 3 Xrotation Yrotation Zrotation
			JOINT LeftLeg
			{
				OFFSET -0.021200 -31.938179 0.493100
				CHANNELS 3 Xrotation Yrotation Zrotation
				JOINT LeftFoot
				{
					OFFSET 0.021200 -31.938179 -4.336299
					CHANNELS 3 Xrotation Yrotation Zrotation
					JOINT LeftToeBase
					{
						OFFSET 0.943001 -26.722000 15.023500
						CHANNELS 3 Xrotation Yrotation Zrotation
						End Site
						{
							OFFSET 0 0 0
						}
					}
				}
			}
		}
	}
	JOINT RightUpLeg_virtual
	{
		OFFSET 0.000000 0.000000 0.000000
		CHANNELS 3 Xrotation Yrotation Zrotation
		JOINT RightUpLeg
		{
			OFFSET -18.735201 -5.666702 -4.541200
			CHANNELS 3 Xrotation Yrotation Zrotation
			JOINT RightLeg
			{
				OFFSET 0.018946 -31.938133 0.493100
				CHANNELS 3 Xrotation Yrotation Zrotation
				JOINT RightFoot
				{
					OFFSET -0.018946 -31.938126 -4.336299
					CHANNELS 3 Xrotation Yrotation Zrotation
					JOINT RightToeBase
					{
						OFFSET -0.943001 -26.722004 15.023500
						CHANNELS 3 Xrotation Yrotation Zrotation
						End Site
						{
							OFFSET 0 0 0
						}
					}
				}
			}
		}
	}
	JOINT Hips_virtual
	{
		OFFSET 0.000000 0.000000 0.000000
		CHANNELS 3 Xrotation Yrotation Zrotation
		JOINT Hips
		{
			OFFSET -0.000000 -0.000000 -0.000000
			CHANNELS 3 Xrotation Yrotation Zrotation
			JOINT Spine
			{
				OFFSET 0.000000 10.199997 -0.299500
				CHANNELS 3 Xrotation Yrotation Zrotation
				JOINT Spine1
				{
					OFFSET 0.000000 11.900002 -1.516600
					CHANNELS 3 Xrotation Yrotation Zrotation
					JOINT Spine2
					{
						OFFSET 0.000000 13.600006 -2.842500
						CHANNELS 3 Xrotation Yrotation Zrotation
						JOINT Neck_virtual
						{
							OFFSET 0.000000 0.000000 0.000000
							CHANNELS 3 Xrotation Yrotation Zrotation
							JOINT Neck
							{
								OFFSET 0.000000 9.624100 -2.890100
								CHANNELS 3 Xrotation Yrotation Zrotation
								JOINT Head
								{
									OFFSET 0.000000 14.068802 -1.351900
									CHANNELS 3 Xrotation Yrotation Zrotation
									End Site
									{
										OFFSET 0 0 0
									}
								}
							}
						}
						JOINT LeftShoulder_virtual
						{
							OFFSET 0.000000 0.000000 0.000000
							CHANNELS 3 Xrotation Yrotation Zrotation
							JOINT LeftShoulder
							{
								OFFSET 15.263000 10.923401 -0.547700
								CHANNELS 3 Xrotation Yrotation Zrotation
								JOINT LeftArm
								{
									OFFSET 25.438599 -2.830597 -13.032500
									CHANNELS 3 Xrotation Yrotation Zrotation
									JOINT LeftForeArm
									{
										OFFSET 29.960503 0.000000 0.000000
										CHANNELS 3 Xrotation Yrotation Zrotation
										JOINT LeftHand
										{
											OFFSET 27.849251 0.000000 0.000000
											CHANNELS 3 Xrotation Yrotation Zrotation
											End Site
											{
												OFFSET 0 0 0
											}
										}
									}
								}
							}
						}
						JOINT RightShoulder_virtual
						{
							OFFSET 0.000000 0.000000 0.000000
							CHANNELS 3 Xrotation Yrotation Zrotation
							JOINT RightShoulder
							{
								OFFSET -15.263000 10.923401 -0.547700
								CHANNELS 3 Xrotation Yrotation Zrotation
								JOINT RightArm
								{
									OFFSET -25.438599 -2.830597 -13.032500
									CHANNELS 3 Xrotation Yrotation Zrotation
									JOINT RightForeArm
									{
										OFFSET -29.960503 0.000000 0.000000
										CHANNELS 3 Xrotation Yrotation Zrotation
										JOINT RightHand
										{
											OFFSET -27.849251 0.000000 0.000000
											CHANNELS 3 Xrotation Yrotation Zrotation
											End Site
											{
												OFFSET 0 0 0
											}
										}
									}
								}
							}
						}
					}
				}
			}
		}
	}
}
MOTION
Frames: 6
Frame Time: 0.03333333
0.365107 92.675926 -50.241425 0.000000 0.000000 0.000000 151.229923 -85.297848 146.301341 -42.009020 -13.539160 10.888822 33.353566 -1.426536 -2.676727 -13.753115 0.242771 -10.961584 0.000000 0.000000 0.000000 59.992277 -67.948566 64.842476 -22.243302 -33.335271 -2.590586 30.511558 4.457113 -7.955457 -18.563189 4.808243 0.227850 0.000000 0.000000 0.000000 -7.925230 -60.111368 -1.469787 15.087068 -52.301262 7.395870 -0.366989 2.654472 -1.279981 -2.279263 1.949821 -0.781355 0.000000 0.000000 0.000000 0.054679 4.191361 -0.368974 -1.921290 3.583170 0.266910 0.000000 0.000000 0.000000 -1.701946 1.790850 -2.110807 1.103876 0.329250 -4.403518 7.279631 5.792646 -69.417644 4.083980 -19.253029 -14.028776 0.000000 0.000000 0.000000 -2.468034 0.279708 -0.598273 0.975343 -0.136336 9.191771 16.668677 11.796910 44.138308 8.748080 62.508846 1.793851 0.000000 0.000000 0.000000 
0.289330 92.714859 -51.222092 0.000000 0.000000 0.000000 167.048751 -81.334576 161.909347 -42.147236 -15.100433 10.032282 33.862022 -1.499955 -2.851638 -13.416579 0.233155 -11.244610 0.000000 0.000000 0.000000 61.381626 -67.687926 66.703300 -22.456456 -33.549326 -2.009605 31.228824 5.158585 -8.076046 -18.148566 5.575255 0.579192 0.000000 0.000000 0.000000 -7.707868 -60.712097 -1.329923 17.156086 -54.054885 9.576148 -0.187027 3.031573 -1.368531 -2.239087 2.140214 -0.806120 0.000000 0.000000 0.000000 0.198923 4.215254 -0.365954 -1.877981 3.486832 0.286325 0.000000 0.000000 0.000000 -1.657182 1.983455 -2.140609 1.190782 0.390010 -4.394035 8.106441 5.688272 -70.052613 4.317221 -19.106824 -14.181934 0.000000 0.000000 0.000000 -2.413221 0.435290 -0.657237 0.956350 0.171624 9.238376 16.082601 12.416918 43.433743 8.950006 62.318093 1.324335 0.000000 0.000000 0.000000 
0.211111 92.744644 -52.182114 0.000000 0.000000 0.000000 172.772709 -77.477267 167.430558 -42.385237 -16.611329 9.106722 34.355206 -1.613131 -3.018204 -13.106359 0.181669 -11.536517 0.000000 0.000000 0.000000 62.696308 -67.414295 68.505131 -22.718577 -33.753422 -1.453474 31.928928 5.858657 -8.201193 -17.771374 6.334048 0.937543 0.000000 0.000000 0.000000 -7.451110 -61.287014 -1.150425 19.362762 -55.689988 11.909084 0.047086 3.362595 -1.455822 -2.175974 2.305546 -0.823353 0.000000 0.000000 0.000000 0.370353 4.197153 -0.356740 -1.817842 3.369359 0.301135 0.000000 0.000000 0.000000 -1.604599 2.157373 -2.155348 1.277763 0.434926 -4.398208 8.934427 5.589762 -70.675287 4.561254 -18.910449 -14.342390 0.000000 0.000000 0.000000 -2.334638 0.568120 -0.701102 0.958543 0.450073 9.307764 15.477869 13.010568 42.736740 9.159013 62.091419 0.816709 0.000000 0.000000 0.000000 
0.137507 92.762352 -53.122601 0.000000 0.000000 0.000000 175.821691 -73.935179 170.291465 -42.728058 -18.042920 8.120317 34.828091 -1.783520 -3.177778 -12.824560 0.071840 -11.851091 0.000000 0.000000 0.000000 63.911671 -67.123793 70.229713 -23.034188 -33.944479 -0.918952 32.602802 6.556409 -8.328067 -17.437360 7.081010 1.305011 0.000000 0.000000 0.000000 -7.160604 -61.842158 -0.935275 21.671910 -57.212058 14.362686 0.329687 3.641005 -1.543831 -2.092530 2.443003 -0.834454 0.000000 0.000000 0.000000 0.563238 4.136201 -0.345999 -1.743234 3.231419 0.309006 0.000000 0.000000 0.000000 -1.545115 2.311930 -2.158033 1.364675 0.468383 -4.426135 9.755837 5.498825 -71.278297 4.814526 -18.661788 -14.507943 0.000000 0.000000 0.000000 -2.236296 0.676150 -0.731765 0.980313 0.692831 9.390258 14.869395 13.585045 42.053208 9.378867 61.845847 0.274089 0.000000 0.000000 0.000000 
0.073414 92.765137 -54.044411 0.000000 0.000000 0.000000 177.806995 -70.752898 172.108555 -43.176686 -19.371508 7.085795 35.272835 -2.018312 -3.331585 -12.574497 -0.102395 -12.195752 0.000000 0.000000 0.000000 65.016646 -66.812815 71.877605 -23.407514 -34.123092 -0.395663 33.245095 7.249167 -8.455148 -17.147946 7.812300 1.680064 0.000000 0.000000 0.000000 -6.845259 -62.383212 -0.691343 24.063581 -58.630398 16.918011 0.655360 3.862407 -1.634234 -1.991048 2.550842 -0.840916 0.000000 0.000000 0.000000 0.771386 4.034629 -0.337453 -1.656826 3.075329 0.308329 0.000000 0.000000 0.000000 -1.479329 2.447197 -2.151508 1.451711 0.494907 -4.485527 10.560743 5.415147 -71.857394 5.074119 -18.364265 -14.677556 0.000000 0.000000 0.000000 -2.122374 0.758593 -0.751169 1.019674 0.896506 9.477226 14.274273 14.147618 41.389082 9.614885 61.597542 -0.300587 0.000000 0.000000 0.000000 
0.020181 92.750450 -54.949383 0.000000 0.000000 0.000000 179.260787 -67.928656 173.415648 -43.723849 -20.580250 6.020328 35.679003 -2.313451 -3.480264 -12.360756 -0.336045 -12.569971 0.000000 0.000000 0.000000 66.014475 -66.478853 73.467864 -23.843238 -34.293553 0.131788 33.852931 7.931982 -8.582479 -16.901155 8.523513 2.056801 0.000000 0.000000 0.000000 -6.516833 -62.915140 -0.428036 26.532022 -59.951487 19.566740 1.019355 4.025046 -1.728666 -1.873275 2.628610 -0.844425 0.000000 0.000000 0.000000 0.988861 3.897649 -0.333880 -1.561277 2.904999 0.298204 0.000000 0.000000 0.000000 -1.407583 2.563851 -2.138242 1.539267 0.518421 -4.580843 11.337329 5.336830 -72.410210 5.335839 -18.026406 -14.850817 0.000000 0.000000 0.000000 -1.997021 0.815957 -0.761121 1.074288 1.060467 9.561853 13.709846 14.705034 40.750708 9.872624 61.361142 -0.903749 0.000000 0.000000 0.000000 
